<svg width="27" height="28" viewBox="0 0 27 28" fill="none" xmlns="http://www.w3.org/2000/svg">
<g id="Group">
<path id="Vector" opacity="0.5" d="M0.949951 17.0399C0.949951 12.213 0.949951 9.79892 2.45011 8.30004C3.94899 6.79988 6.36307 6.79988 11.19 6.79988H16.31C21.1368 6.79988 23.5509 6.79988 25.0498 8.30004C26.5499 9.79892 26.5499 12.213 26.5499 17.0399C26.5499 21.8668 26.5499 24.2808 25.0498 25.7797C23.5509 27.2799 21.1368 27.2799 16.31 27.2799H11.19C6.36307 27.2799 3.94899 27.2799 2.45011 25.7797C0.949951 24.2808 0.949951 21.8668 0.949951 17.0399Z" fill="white"/>
<path id="Vector_2" d="M13.6834 0.720001C12.5327 0.720001 11.574 0.720001 10.8137 0.822401C10.0098 0.929921 9.28406 1.168 8.70166 1.7504C8.11798 2.33408 7.8799 3.05984 7.77238 3.8624C7.66998 4.624 7.66998 5.584 7.66998 6.73344V6.8H9.58998C9.58998 5.56608 9.59254 4.73664 9.67574 4.1184C9.7551 3.52832 9.89206 3.27488 10.0597 3.10848C10.2261 2.94208 10.4783 2.80512 11.0684 2.72448C11.6866 2.64256 12.5161 2.64 13.75 2.64C14.9839 2.64 15.8133 2.64256 16.4316 2.72576C17.0217 2.80512 17.2751 2.94208 17.4415 3.10976C17.6079 3.27616 17.7449 3.52832 17.8255 4.1184C17.9074 4.73664 17.91 5.56608 17.91 6.8H19.83V6.73344C19.83 5.584 19.83 4.624 19.7276 3.86368C19.6201 3.05984 19.382 2.33408 18.7983 1.75168C18.2159 1.168 17.4901 0.929921 16.6863 0.822401C15.926 0.720001 14.966 0.720001 13.8165 0.720001H13.6834ZM11.19 18.32H6.06998C5.4671 18.32 5.16502 18.32 4.97686 18.5069C4.78998 18.695 4.78998 18.9984 4.78998 19.6V20.88C4.78998 21.4829 4.78998 21.785 4.97686 21.9731C5.16502 22.16 5.46838 22.16 6.06998 22.16H11.19C11.7929 22.16 12.0949 22.16 12.2831 21.9731C12.47 21.785 12.47 21.4816 12.47 20.88V19.6C12.47 18.9971 12.47 18.695 12.2831 18.5069C12.0949 18.32 11.7916 18.32 11.19 18.32Z" fill="white"/>
<path id="Vector_3" d="M5.11023 27.0203C5.67215 27.1214 6.30703 27.1828 7.03023 27.2199V22.1601H6.07023C5.59151 22.1601 5.30223 22.1601 5.11023 22.0667V27.0203ZM5.11023 18.4135V7.05993C5.67215 6.95881 6.30703 6.89737 7.03023 6.86025V18.3201H6.07023C5.59151 18.3201 5.30223 18.3201 5.11023 18.4135ZM20.4702 27.2199C21.1137 27.1929 21.7549 27.1262 22.3902 27.0203V7.05993C21.7549 6.95395 21.1137 6.88726 20.4702 6.86025V27.2199Z" fill="white"/>
</g>
</svg>
