<svg width="40" height="40" viewBox="0 0 40 40" fill="none" xmlns="http://www.w3.org/2000/svg">
<g id="solar:suitcase-tag-bold-duotone">
<g id="Group">
<path id="Vector" opacity="0.5" d="M3.33301 22.4833C3.33301 16.4497 3.33301 13.4321 5.20821 11.5585C7.08181 9.68333 10.0994 9.68333 16.133 9.68333H22.533C28.5666 9.68333 31.5842 9.68333 33.4578 11.5585C35.333 13.4321 35.333 16.4497 35.333 22.4833C35.333 28.5169 35.333 31.5345 33.4578 33.4081C31.5842 35.2833 28.5666 35.2833 22.533 35.2833H16.133C10.0994 35.2833 7.08181 35.2833 5.20821 33.4081C3.33301 31.5345 3.33301 28.5169 3.33301 22.4833Z" fill="#08A94C"/>
<path id="Vector_2" d="M19.2498 2.0835C17.8114 2.0835 16.613 2.0835 15.6626 2.2115C14.6578 2.3459 13.7506 2.6435 13.0226 3.3715C12.293 4.1011 11.9954 5.0083 11.861 6.0115C11.733 6.9635 11.733 8.1635 11.733 9.6003V9.6835H14.133C14.133 8.1411 14.1362 7.1043 14.2402 6.3315C14.3394 5.5939 14.5106 5.2771 14.7202 5.0691C14.9282 4.8611 15.2434 4.6899 15.981 4.5891C16.7538 4.4867 17.7906 4.4835 19.333 4.4835C20.8754 4.4835 21.9122 4.4867 22.685 4.5907C23.4226 4.6899 23.7394 4.8611 23.9474 5.0707C24.1554 5.2787 24.3266 5.5939 24.4274 6.3315C24.5298 7.1043 24.533 8.1411 24.533 9.6835H26.933V9.6003C26.933 8.1635 26.933 6.9635 26.805 6.0131C26.6706 5.0083 26.373 4.1011 25.6434 3.3731C24.9154 2.6435 24.0082 2.3459 23.0034 2.2115C22.053 2.0835 20.853 2.0835 19.4162 2.0835H19.2498ZM16.133 24.0835H9.733C8.9794 24.0835 8.6018 24.0835 8.3666 24.3171C8.133 24.5523 8.133 24.9315 8.133 25.6835V27.2835C8.133 28.0371 8.133 28.4147 8.3666 28.6499C8.6018 28.8835 8.981 28.8835 9.733 28.8835H16.133C16.8866 28.8835 17.2642 28.8835 17.4994 28.6499C17.733 28.4147 17.733 28.0355 17.733 27.2835V25.6835C17.733 24.9299 17.733 24.5523 17.4994 24.3171C17.2642 24.0835 16.885 24.0835 16.133 24.0835Z" fill="#08A94C"/>
<path id="Vector_3" d="M8.53333 34.9588C9.23573 35.0852 10.0293 35.162 10.9333 35.2084V28.8836H9.73333C9.13493 28.8836 8.77333 28.8836 8.53333 28.7668V34.9588ZM8.53333 24.2004V10.0084C9.23573 9.882 10.0293 9.8052 10.9333 9.7588V24.0836H9.73333C9.13493 24.0836 8.77333 24.0836 8.53333 24.2004ZM27.7333 35.2084C28.5377 35.1746 29.3392 35.0912 30.1333 34.9588V10.0084C29.3392 9.87592 28.5377 9.79256 27.7333 9.7588V35.2084Z" fill="#08A94C"/>
</g>
</g>
</svg>
